HIERARCHY
ROOT Hips
{
	OFFSET 0.000000 0.000000 0.000000
	CHANNELS 6 Xposition Yposition Zposition Xrotation Yrotation Zrotation
	JOINT LeftUpLeg_virtual
	{
		OFFSET 0.000000 0.000000 0.000000
		CHANNELS 3 Xrotation Yrotation Zrotation
		JOINT LeftUpLeg
		{
			OFFSET 13.026900 -6.336304 -1.092800
			CHANNELS 3 Xrotation Yrotation Zrotation
			JOINT LeftLeg
			{
				OFFSET 0.524474 -46.096886 9.782700
				CHANNELS 3 Xrotation Yrotation Zrotation
				JOINT LeftFoot
				{
					OFFSET -0.524474 -53.427422 -12.948200
					CHANNELS 3 Xrotation Yrotation Zrotation
					JOINT LeftToeBase
					{
						OFFSET 0.192200 -14.009700 16.364100
						CHANNELS 3 Xrotation Yrotation Zrotation
						JOINT LeftToe_End
						{
							OFFSET -1.784700 -0.561700 9.474800
							CHANNELS 3 Xrotation Yrotation Zrotation
							End Site
							{
								OFFSET 0 0 0
							}
						}
					}
				}
			}
		}
	}
	JOINT RightUpLeg_virtual
	{
		OFFSET 0.000000 0.000000 0.000000
		CHANNELS 3 Xrotation Yrotation Zrotation
		JOINT RightUpLeg
		{
			OFFSET -12.883000 -6.336304 -1.092800
			CHANNELS 3 Xrotation Yrotation Zrotation
			JOINT RightLeg
			{
				OFFSET -0.524587 -46.096825 9.782800
				CHANNELS 3 Xrotation Yrotation Zrotation
				JOINT RightFoot
				{
					OFFSET 0.524587 -53.427383 -12.948300
					CHANNELS 3 Xrotation Yrotation Zrotation
					JOINT RightToeBase
					{
						OFFSET -0.192200 -14.009700 16.364100
						CHANNELS 3 Xrotation Yrotation Zrotation
						JOINT RightToe_End
						{
							OFFSET 1.784700 -0.561700 9.474800
							CHANNELS 3 Xrotation Yrotation Zrotation
							End Site
							{
								OFFSET 0 0 0
							}
						}
					}
				}
			}
		}
	}
	JOINT Spine_virtual
	{
		OFFSET 0.000000 0.000000 0.000000
		CHANNELS 3 Xrotation Yrotation Zrotation
		JOINT Spine
		{
			OFFSET 0.072000 7.257294 -0.789700
			CHANNELS 3 Xrotation Yrotation Zrotation
			JOINT Spine1
			{
				OFFSET 0.000000 12.508769 -0.658067
				CHANNELS 3 Xrotation Yrotation Zrotation
				JOINT Spine1_split
				{
					OFFSET 0.000000 12.508769 -0.658067
					CHANNELS 3 Xrotation Yrotation Zrotation
					JOINT Spine2
					{
						OFFSET 0.000000 12.508769 -0.658067
						CHANNELS 3 Xrotation Yrotation Zrotation
						JOINT Neck_virtual
						{
							OFFSET 0.000000 0.000000 0.000000
							CHANNELS 3 Xrotation Yrotation Zrotation
							JOINT Neck
							{
								OFFSET 0.000000 14.033295 7.520400
								CHANNELS 3 Xrotation Yrotation Zrotation
								JOINT Head
								{
									OFFSET 0.000000 8.198502 5.703100
									CHANNELS 3 Xrotation Yrotation Zrotation
									JOINT HeadTop_End
									{
										OFFSET 0.000000 17.760803 13.332701
										CHANNELS 3 Xrotation Yrotation Zrotation
										End Site
										{
											OFFSET 0 0 0
										}
									}
								}
							}
						}
						JOINT LeftShoulder_virtual
						{
							OFFSET 0.000000 0.000000 0.000000
							CHANNELS 3 Xrotation Yrotation Zrotation
							JOINT LeftShoulder
							{
								OFFSET 6.292450 5.785301 -0.669000
								CHANNELS 3 Xrotation Yrotation Zrotation
								JOINT LeftShoulder_split
								{
									OFFSET 6.292450 5.785301 -0.669000
									CHANNELS 3 Xrotation Yrotation Zrotation
									JOINT LeftArm
									{
										OFFSET 13.907140 -6.093903 1.965100
										CHANNELS 3 Xrotation Yrotation Zrotation
										JOINT LeftForeArm
										{
											OFFSET 34.140198 0.000000 0.000000
											CHANNELS 3 Xrotation Yrotation Zrotation
											JOINT LeftHand
											{
												OFFSET 40.960209 0.000000 0.000000
												CHANNELS 3 Xrotation Yrotation Zrotation
												End Site
												{
													OFFSET 0 0 0
												}
											}
										}
									}
								}
							}
						}
						JOINT RightShoulder_virtual
						{
							OFFSET 0.000000 0.000000 0.000000
							CHANNELS 3 Xrotation Yrotation Zrotation
							JOINT RightShoulder
							{
								OFFSET -6.292450 5.785301 -0.669000
								CHANNELS 3 Xrotation Yrotation Zrotation
								JOINT RightShoulder_split
								{
									OFFSET -6.292450 5.785301 -0.669000
									CHANNELS 3 Xrotation Yrotation Zrotation
									JOINT RightArm
									{
										OFFSET -13.907140 -6.093903 1.965100
										CHANNELS 3 Xrotation Yrotation Zrotation
										JOINT RightForeArm
										{
											OFFSET -34.140198 0.000000 0.000000
											CHANNELS 3 Xrotation Yrotation Zrotation
											JOINT RightHand
											{
												OFFSET -40.960209 0.000000 0.000000
												CHANNELS 3 Xrotation Yrotation Zrotation
												End Site
												{
													OFFSET 0 0 0
												}
											}
										}
									}
								}
							}
						}
					}
				}
			}
		}
	}
}
MOTION
Frames: 4
Frame Time: 0.03333333
-2.283735 113.052765 -8.650167 0.000000 0.000000 0.000000 4.210373 -84.189041 5.264423 -16.435944 22.533552 13.978578 25.457396 -7.093919 -0.729313 -8.711035 2.293274 -8.910462 -2.319299 -0.335368 -0.563507 0.000000 0.000000 0.000000 2.611741 -82.162381 2.948057 -13.193190 -14.965884 -9.937443 24.278771 10.405032 -2.780731 -10.748173 -6.674918 11.440328 3.343483 0.255694 -13.457262 0.000000 0.000000 0.000000 -17.047688 -81.613951 -16.052746 -6.089442 4.057374 3.103542 9.923325 -0.625880 2.082974 -0.022154 -0.069181 0.014039 0.000000 0.000000 0.000000 10.809307 1.408398 3.121155 -5.292005 11.527968 -3.047488 -4.109640 -37.389726 -8.389756 0.000000 0.000000 0.000000 9.905386 0.012125 2.244130 -0.055870 1.707829 -4.436721 8.674795 -4.861926 0.539862 37.083054 -78.140301 -27.462201 -3.176843 -13.901475 -0.590809 0.000000 0.000000 0.000000 10.313219 0.099597 3.045955 -9.760692 -1.796512 6.505606 4.477866 1.848748 2.596415 5.065611 32.580433 68.520383 -3.907599 20.695217 -6.828359 0.000000 0.000000 0.000000 
-2.363251 113.080231 -8.340487 0.000000 0.000000 0.000000 3.193890 -84.174015 4.299257 -16.431705 21.827941 13.978324 25.253993 -6.993987 -0.797158 -8.168881 2.689456 -8.657350 -2.356992 -0.293683 -0.699393 0.000000 0.000000 0.000000 3.694453 -82.140176 3.882519 -13.180155 -14.887541 -9.946934 24.379358 10.378671 -2.817962 -10.641960 -6.534164 11.544276 3.041838 0.286956 -13.413610 0.000000 0.000000 0.000000 -17.252438 -81.711411 -16.253304 -5.800909 3.965838 2.981891 9.533880 -0.616162 2.138031 -0.010102 -0.127750 0.058086 0.000000 0.000000 0.000000 10.817217 1.484924 3.122028 -5.384270 11.514117 -2.962753 -4.922442 -37.206854 -8.827269 0.000000 0.000000 0.000000 9.932626 0.030861 2.326883 0.008368 1.506684 -4.361707 8.799118 -5.098918 -0.108546 38.596928 -78.280470 -25.912700 -3.476253 -13.949467 -0.837246 0.000000 0.000000 0.000000 10.244201 0.138272 3.141769 -9.679600 -1.754124 6.133676 4.952174 2.076429 2.333188 5.107836 32.699145 68.498383 -3.707290 20.519649 -6.957418 0.000000 0.000000 0.000000 
-2.435800 113.250809 -7.996939 0.000000 0.000000 0.000000 3.079157 -84.282861 4.207637 -16.482945 20.997741 13.944118 25.095273 -6.921112 -0.864208 -7.586347 3.206574 -8.500573 -2.716227 -0.252346 -0.862696 0.000000 0.000000 0.000000 4.768990 -82.227664 4.824489 -12.951143 -14.991137 -9.814825 24.265849 10.281367 -2.906426 -10.541087 -6.322086 11.702712 2.741577 0.315014 -13.213005 0.000000 0.000000 0.000000 -16.479105 -81.821397 -15.467149 -5.404166 3.819690 2.928796 9.034255 -0.565731 2.114588 0.002280 -0.167663 0.078860 0.000000 0.000000 0.000000 10.770570 1.596699 3.079470 -5.367695 11.585859 -2.807776 -5.960753 -36.793444 -9.375962 0.000000 0.000000 0.000000 9.968861 0.090559 2.387800 0.201289 1.388921 -4.169240 8.559874 -4.824336 -1.186104 43.411941 -78.376899 -21.142174 -3.319129 -14.574758 -0.670140 0.000000 0.000000 0.000000 10.105312 0.186554 3.172336 -9.483787 -1.574780 5.625934 5.414630 2.259776 2.102161 5.030502 32.246542 69.034218 -3.004952 20.971196 -7.477887 0.000000 0.000000 0.000000 
-2.431510 113.459381 -7.685236 0.000000 0.000000 0.000000 3.803382 -84.495656 4.941163 -16.705557 20.233525 13.943710 25.131490 -6.899291 -0.946014 -6.958324 3.809700 -8.539971 -3.235384 -0.214983 -0.988547 0.000000 0.000000 0.000000 5.734444 -82.454098 5.731628 -12.708516 -15.248387 -9.642351 24.034710 10.116825 -3.021219 -10.423305 -6.091481 11.917890 2.612298 0.326141 -12.898391 0.000000 0.000000 0.000000 -14.971602 -82.013695 -13.975090 -4.908553 3.645342 2.900477 8.466300 -0.483593 2.037194 0.021376 -0.222506 0.062422 0.000000 0.000000 0.000000 10.673732 1.726376 3.023743 -5.232756 11.730105 -2.613480 -7.057121 -36.222242 -9.916314 0.000000 0.000000 0.000000 9.968005 0.184338 2.431545 0.488009 1.405798 -3.972024 8.014597 -4.181182 -2.293046 50.647359 -78.368491 -14.014332 -2.770733 -15.365554 -0.171640 0.000000 0.000000 0.000000 9.904332 0.243651 3.166036 -9.211131 -1.228302 5.077657 5.842709 2.277148 2.069052 4.790663 31.331963 69.950727 -1.875165 21.860473 -8.332312 0.000000 0.000000 0.000000 
